jomhuria.sfdir
StartChar: braceright
Encoding: 125 125 175
Width: 637
Flags: HW
LayerCount: 2
Back
SplineSet
535 -460 m 0,0,1
 543 -606 543 -606 404 -760 c 1,2,3
 386 -784 386 -784 407 -807 c 1,4,5
 430 -828 430 -828 455 -808 c 0,6,7
 615 -672 615 -672 619 -412 c 0,8,9
 621 -294 621 -294 561 -136 c 1,10,11
 505 15 505 15 496 77 c 0,12,13
 478 214 478 214 634 308 c 1,14,-1
 634 372 l 1,15,16
 477 466 477 466 496 603 c 0,17,18
 505 667 505 667 561 816 c 0,19,20
 620 975 620 975 619 1091 c 1,21,22
 614 1352 614 1352 455 1487 c 0,23,24
 430 1508 430 1508 407 1486 c 1,25,26
 386 1462 386 1462 405 1438 c 1,27,28
 544 1284 544 1284 535 1139 c 0,29,30
 530 1060 530 1060 471 963 c 1,31,32
 371 794 371 794 400 606 c 1,33,34
 429 426 429 426 552 340 c 1,35,36
 429 252 429 252 400 74 c 1,37,38
 371 -115 371 -115 471 -283 c 0,39,40
 530 -381 530 -381 535 -460 c 0,0,1
EndSplineSet
Fore
SplineSet
552.625976562 615.921875 m 6
 587.408203125 615.921875 l 5
 587.408203125 540.791992188 l 5
 552.625976562 540.791992188 l 6
 472.486328125 540.791992188 457.182617188 445.0703125 455.234375 399.991210938 c 6
 455.234375 -1.5390625 l 6
 455.234375 -201.330078125 293.287109375 -363 93.7734375 -363 c 6
 0 -363 l 5
 0 -218.860351562 l 5
 121.877929688 -218.860351562 203.408203125 -134.547851562 203.408203125 -29.0869140625 c 6
 203.408203125 -29.0869140625 203.408203125 306.49609375 203.408203125 307.609375 c 4
 203.408203125 511.295898438 272.138671875 568.895507812 331.96484375 578.356445312 c 5
 331.96484375 578.356445312 203.408203125 598.391601562 203.408203125 849.661132812 c 4
 203.408203125 1239.2265625 l 6
 203.408203125 1344.6875 121.877929688 1429 0 1429 c 5
 0 1573.13964844 l 5
 93.7734375 1573.13964844 l 6
 293.287109375 1573.13964844 455.234375 1411.19140625 455.234375 1211.67871094 c 6
 455.234375 756.721679688 l 6
 457.182617188 711.643554688 472.486328125 615.921875 552.625976562 615.921875 c 6
EndSplineSet
Colour: ffff00
EndChar
StartChar: uni0600
Encoding: 1536 1536 1112
Width: 3083
Flags: HW
LayerCount: 2
Back
SplineSet
2014 -128 m 1,0,-1
 1955 -114 l 2,1,2
 1855 -90 1855 -90 1855 -29 c 0,3,4
 1855 96 1855 96 1964 217 c 0,5,6
 2035 296 2035 296 2095 296 c 0,7,8
 2110 296 2110 296 2101 273 c 2,9,-1
 2057 165 l 2,10,11
 2046 139 2046 139 2035 136 c 0,12,13
 1975 120 1975 120 1954 93 c 0,14,15
 1942 78 1942 78 1984 61 c 128,-1,16
 2026 44 2026 44 2092 34.5 c 128,-1,17
 2158 25 2158 25 2158 -30 c 128,-1,18
 2158 -85 2158 -85 2099 -164 c 0,19,20
 1971 -335 1971 -335 1107 -335 c 0,21,22
 247 -335 247 -335 161 -300 c 0,23,24
 118 -283 118 -283 88 -249 c 2,25,-1
 21 -175 l 2,26,27
 10 -163 10 -163 10 -154.5 c 128,-1,28
 10 -146 10 -146 44 -152 c 0,29,30
 271 -192 271 -192 1097 -192 c 128,-1,31
 1923 -192 1923 -192 2014 -128 c 1,0,-1
EndSplineSet
Fore
SplineSet
3001.79003906 437.174804688 m 2
 3002.05761719 100.8046875 l 2
 3002.23730469 -116.166992188 2826.40527344 -292.088867188 2609.43261719 -292.088867188 c 2
 298 -292.088867188 l 1
 60 144.098632812 l 1
 60 144.098632812 2640.55664062 144 2641.36132812 144 c 0
 2781.6875 144 2825.15332031 201.868164062 2826.49511719 258.5703125 c 1
 2484.22265625 258.5703125 l 2
 2390.40332031 258.5703125 2314.3828125 334.590820312 2314.3828125 428.41015625 c 2
 2313.93554688 797.245117188 l 2
 2313.84667969 930.326171875 2421.6171875 1038.36523438 2554.69824219 1038.36523438 c 2
 2851 1038.45410156 l 1
 2851 945.440429688 l 1
 2851 945.440429688 2662.20019531 863.069335938 2559.79589844 695.913085938 c 1
 2742.87207031 695.913085938 l 2
 2885.79101562 695.913085938 3001.70019531 580.09375 3001.79003906 437.174804688 c 2
EndSplineSet
Colour: ffff00
EndChar
StartChar: uni0601
Encoding: 1537 1537 1113
Width: 6226
VWidth: 0
Flags: HW
LayerCount: 2
Fore
SplineSet
90 -52 m 1049
6134.16503906 266.6171875 m 2,0,-1
 6135.27832031 -32.513671875 l 2,1,2
 6135.27832031 -142.1484375 6078.234375 -300.478515625 5902.37304688 -300.478515625 c 0,3,4
 5700.35644531 -300.478515625 5692.0078125 -118.217773438 5692.0078125 -118.217773438 c 1,5,6
 5692.0078125 -118.217773438 5662.51269531 -313 5521.71289062 -313 c 0,7,8
 5340.56445312 -313 5320.80859375 -118.217773438 5320.80859375 -118.217773438 c 1,9,10
 5320.80859375 -118.217773438 5313.8515625 -313 5079 -313 c 2,11,-1
 1294.98730469 -313 l 2,12,13
 1172.89746094 -313 1071.265625 -230.078125 1039.54394531 -118.217773438 c 1,14,15
 1007.82226562 -230.078125 905.978515625 -313 784.100585938 -313 c 2,16,-1
 701.178710938 -313 l 2,17,18
 553.978515625 -313 434.604492188 -192.791992188 434.604492188 -45.591796875 c 2,19,-1
 434.604492188 176.182617188 l 1,20,21
 272.100585938 176.182617188 192.517578125 -42.80859375 207.543945312 -226.4609375 c 1,22,-1
 98.744140625 -226.4609375 l 1,23,24
 70.4814453125 -52 l 1,0,0
 70.4814453125 -52 116.227539062 481.15625 596.274414062 481.15625 c 1,25,-1
 595.717773438 252.30078125 l 2,26,27
 595.577148438 194.422851562 604.388671875 122.592773438 706.465820312 123.1875 c 2,28,-1
 849.76953125 123.1875 l 2,29,30
 896.50390625 123.1875 912.37890625 142.666015625 912.37890625 165.483398438 c 2,31,-1
 912.37890625 282.477539062 l 1,32,-1
 1058.74414062 282.477539062 l 1,33,-1
 1058.74414062 166.040039062 l 2,34,35
 1058.74414062 154.909179688 1058.75585938 123.1875 1095.75292969 123.1875 c 2,36,-1
 5229.81738281 123.1875 l 2,37,38
 5276.56445312 123.161132812 5292.42578125 142.666015625 5292.42578125 165.483398438 c 2,39,-1
 5292.42578125 282.477539062 l 1,40,-1
 5438.79101562 282.477539062 l 1,41,42
 5438.79101562 282.477539062 5422.65136719 123.1875 5525.33007812 123.1875 c 0,43,44
 5635.52148438 123.1875 5617.43457031 282.477539062 5617.43457031 282.477539062 c 1,45,-1
 5764.63476562 282.477539062 l 1,46,47
 5764.63476562 282.477539062 5746.26953125 123.1875 5845.05175781 123.1875 c 0,48,49
 5974.44335938 123.1875 5966.09570312 243.243164062 5847 355.66015625 c 1,50,-1
 6045.95605469 512.321289062 l 1,51,52
 6045.95605469 512.321289062 6134.16503906 395.73046875 6134.16503906 266.6171875 c 2,0,-1
EndSplineSet
Colour: ffff00
EndChar
StartChar: uni0602
Encoding: 1538 1538 1430
Width: 2674
Flags: HW
LayerCount: 2
Back
SplineSet
189.58203125 -2 m 0,0,1
 116.58203125 -2 116.58203125 -2 116.58203125 -80 c 0,2,3
 116.58203125 -133 116.58203125 -133 185.58203125 -159 c 1,4,5
 219.58203125 -170 219.58203125 -170 302.58203125 -185 c 1,6,7
 302.58203125 -2 302.58203125 -2 189.58203125 -2 c 0,0,1
145.58203125 -278 m 0,8,9
 105.58203125 -259 105.58203125 -259 76.08203125 -224 c 128,-1,10
 46.58203125 -189 46.58203125 -189 46.58203125 -142 c 0,11,12
 46.58203125 -36 46.58203125 -36 121.58203125 50 c 0,13,14
 171.58203125 106 171.58203125 106 216.08203125 106 c 128,-1,15
 260.58203125 106 260.58203125 106 295.58203125 85 c 0,16,17
 350.58203125 53 350.58203125 53 350.58203125 -82 c 0,18,19
 350.58203125 -131 350.58203125 -131 343.58203125 -193 c 1,20,21
 470.58203125 -210 470.58203125 -210 754.58203125 -210 c 1,22,23
 1161.58203125 -208 1161.58203125 -208 1498.58203125 -150 c 0,24,25
 1544.58203125 -142 1544.58203125 -142 1544.58203125 -150 c 0,26,27
 1544.58203125 -157 1544.58203125 -157 1521.58203125 -173 c 2,28,-1
 1436.58203125 -231 l 2,29,30
 1398.58203125 -257 1398.58203125 -257 1351.58203125 -269 c 0,31,32
 1107.58203125 -331 1107.58203125 -331 682.58203125 -331 c 128,-1,33
 257.58203125 -331 257.58203125 -331 145.58203125 -278 c 0,8,9
EndSplineSet
Fore
SplineSet
429.3046875 484.907226562 m 0
 235.228515625 484.907226562 89.08984375 320.61328125 89 91.56640625 c 2
 89 -41.6904296875 l 2
 89 -151.071289062 146.239257812 -309.984375 321.981445312 -310 c 2
 2375 -310.1875 l 2
 2613 126 l 1
 715.58203125 126 l 1
 715.858398438 154.528320312 l 2
 715.858398438 198.264648438 l 2
 715.858398438 356.56640625 641.08984375 484.907226562 429.3046875 484.907226562 c 0
494.592773438 126 m 2
 286.385742188 126 l 1
 286.385742188 126 419.9140625 293.513671875 508.09765625 293.513671875 c 0
 563.370117188 293.513671875 588.412109375 259.169921875 588.412109375 205.508789062 c 0
 588.412109375 145.497070312 529.831054688 126 494.592773438 126 c 2
EndSplineSet
Colour: ffffff
EndChar
StartChar: uni0617
Encoding: 1559 1559 1071
Width: 343
Flags: HW
HStem: 2600 488.4
VStem: 234.087 59.4307<2759.7 2845.48>
AnchorPoint: "MarkAbove" 164 2600 mark 0
LayerCount: 2
Back
SplineSet
250.411132812 3624 m 2,0,1
 253.411132812 3629 253.411132812 3629 281.911132812 3619 c 128,-1,2
 310.411132812 3609 310.411132812 3609 348.411132812 3575 c 0,3,4
 354.411132812 3570 354.411132812 3570 350.411132812 3564 c 2,5,-1
 291.411132812 3471 l 2,6,7
 287.411132812 3466 287.411132812 3466 278.911132812 3473 c 128,-1,8
 270.411132812 3480 270.411132812 3480 192.411132812 3527 c 0,9,10
 186.411132812 3530 186.411132812 3530 190.411132812 3534 c 1,11,-1
 250.411132812 3624 l 2,0,1
376.411132812 3292 m 2,12,13
 380.411132812 3307 380.411132812 3307 398.411132812 3289 c 0,14,15
 446.411132812 3240 446.411132812 3240 470.411132812 3157 c 128,-1,16
 494.411132812 3074 494.411132812 3074 483.411132812 2979.5 c 128,-1,17
 472.411132812 2885 472.411132812 2885 400.911132812 2793.5 c 128,-1,18
 329.411132812 2702 329.411132812 2702 214.411132812 2672 c 0,19,20
 183.411132812 2664 183.411132812 2664 155.411132812 2673 c 0,21,22
 -29.5888671875 2736 -29.5888671875 2736 -28.0888671875 2750.5 c 128,-1,23
 -26.5888671875 2765 -26.5888671875 2765 -13.5888671875 2761 c 0,24,25
 70.4111328125 2735 70.4111328125 2735 131.411132812 2743 c 0,26,27
 334.411132812 2770 334.411132812 2770 442.411132812 2979 c 0,28,29
 447.411132812 2988 447.411132812 2988 444.411132812 2998 c 0,30,31
 426.411132812 3063 426.411132812 3063 348.411132812 3160 c 0,32,33
 344.411132812 3165 344.411132812 3165 346.411132812 3169 c 2,34,-1
 376.411132812 3292 l 2,12,13
EndSplineSet
Fore
SplineSet
225.485351562 3082.01953125 m 261
 187.4375 3043.97167969 l 261
 187.4375 3035.8515625 l 261
 225.485351562 2997.57226562 l 261
 234.30078125 2997.57226562 l 261
 273.97265625 3035.8515625 l 261
 273.97265625 3043.97167969 l 261
 234.30078125 3082.01953125 l 261
 225.485351562 3082.01953125 l 261
230.67578125 2963.80761719 m 1
 230.67578125 2963.80761719 293.4921875 2921.88867188 293.517578125 2817.37597656 c 0
 293.4921875 2781.67871094 286.243164062 2738.62890625 266.44921875 2687.52636719 c 0
 249.114257812 2642.72167969 231.051757812 2600 192.16796875 2600 c 0
 157.396484375 2600 50.0751953125 2654.06152344 50.0751953125 2654.06152344 c 1
 50 2683.99023438 l 1
 120.04296875 2697.81347656 234.086914062 2764.59375 234.086914062 2796.83007812 c 0
 234.086914062 2823.69921875 176.337890625 2874.65136719 176.337890625 2874.65136719 c 1
 230.67578125 2963.80761719 l 1
EndSplineSet
Colour: ffffff
EndChar
StartChar: uni0621
Encoding: 1569 1569 60
Width: 567
Flags: W
HStem: 0 21G<50 77.8184>
VStem: 50 467.304
AnchorPoint: "TashkilAbove" 260 800 basechar 0
AnchorPoint: "TashkilBelow" 260 -110 basechar 0
LayerCount: 2
Back
SplineSet
592.241210938 255 m 2,0,1
 583.241210938 226 583.241210938 226 566.241210938 215 c 1,2,3
 412.241210938 161 412.241210938 161 185.241210938 8 c 0,4,5
 165.241210938 -5 165.241210938 -5 152.241210938 8 c 0,6,7
 117.241210938 43 117.241210938 43 244.241210938 149 c 1,8,9
 77.2412109375 210 77.2412109375 210 91.2412109375 312 c 1,10,11
 101.241210938 396 101.241210938 396 217.241210938 530 c 0,12,13
 288.241210938 611 288.241210938 611 337.241210938 611 c 0,14,15
 442.241210938 610 442.241210938 610 432.241210938 496 c 0,16,17
 428.241210938 455 428.241210938 455 405.741210938 417.5 c 128,-1,18
 383.241210938 380 383.241210938 380 354.241210938 407 c 0,19,20
 262.241210938 495 262.241210938 495 222.241210938 439 c 0,21,22
 178.241210938 376 178.241210938 376 294.241210938 320 c 0,23,24
 365.241210938 286 365.241210938 286 459.241210938 303 c 0,25,26
 486.241210938 308 486.241210938 308 523.241210938 329.5 c 128,-1,27
 560.241210938 351 560.241210938 351 585.241210938 356 c 1,28,29
 624.241210938 362 624.241210938 362 608.241210938 309 c 2,30,-1
 592.241210938 255 l 2,0,1
EndSplineSet
Fore
SplineSet
260.827148438 499.8671875 m 4
 287.390625 490.12890625 388.426757812 453.727539062 517.303710938 476.946289062 c 5
 517.303710938 335.967773438 l 5
 50 0 l 5
 50 151.701171875 l 5
 232.100585938 289.040039062 l 5
 232.100585938 289.040039062 153.790039062 327.11328125 77.15234375 399.225585938 c 4
 52.2626953125 422.73828125 34.849609375 448.021484375 71.7412109375 498.490234375 c 6
 71.7412109375 498.490234375 162.841796875 629.532226562 168.3515625 636.615234375 c 4
 182.71484375 655.30859375 211.736328125 705.088867188 299.982421875 705.088867188 c 4
 402.396484375 705.088867188 482.673828125 581.327148438 482.673828125 581.327148438 c 5
 366.783203125 530.366210938 l 5
 366.783203125 530.366210938 329.201171875 584.965820312 304.901367188 599.231445312 c 4
 271.944335938 618.61328125 228.953125 609.66015625 201.603515625 582.015625 c 4
 173.76171875 553.877929688 206.2265625 519.9375 260.827148438 499.8671875 c 4
EndSplineSet
Colour: ffff00
EndChar
StartChar: uni0660
Encoding: 1632 1632 130
Width: 715
Flags: HW
LayerCount: 2
Back
SplineSet
514 639 m 2,0,1
 529 682 529 682 576 652 c 2,2,-1
 745 543 l 2,3,4
 782 519 782 519 766 473 c 1,5,-1
 701 271 l 2,6,7
 684 219 684 219 631 251 c 2,8,-1
 445 361 l 2,9,10
 420 376 420 376 436 421 c 2,11,-1
 514 639 l 2,0,1
EndSplineSet
Fore
SplineSet
332 626.55859375 m 261
 122.079101562 416.640625 l 261
 122.079101562 371.83984375 l 261
 332 160.640625 l 261
 380.640625 160.640625 l 261
 599.520507812 371.83984375 l 261
 599.520507812 416.640625 l 261
 380.640625 626.55859375 l 261
 332 626.55859375 l 261
EndSplineSet
Colour: ffff00
EndChar
StartChar: uni0670
Encoding: 1648 1648 122
Width: 228
GlyphClass: 4
Flags: W
HStem: 1734.47 341.559
VStem: 50 128.074<1936.44 2000.81>
AnchorPoint: "TashkilTashkilAbove2" 154 2253 basemark 0
AnchorPoint: "HamzaAbove" 140 1700 mark 0
AnchorPoint: "MarkAbove" 106.954 1700 mark 0
AnchorPoint: "AlefAbove" 112.954 1640 mark 0
AnchorPoint: "TashkilAbove" 140 1750 mark 0
AnchorPoint: "TashkilTashkilAbove" 68 1750 mark 0
LayerCount: 2
Back
SplineSet
-41.0458984375 2379 m 2,0,1
 -31.0458984375 2411 -31.0458984375 2411 -3.0458984375 2377 c 1,2,3
 191.954101562 2162 191.954101562 2162 129.954101562 1829 c 0,4,5
 125.954101562 1809 125.954101562 1809 109.954101562 1807 c 0,6,7
 90.9541015625 1804 90.9541015625 1804 88.9541015625 1828 c 1,8,9
 61.9541015625 2041 61.9541015625 2041 -70.0458984375 2203 c 0,10,11
 -87.0458984375 2223 -87.0458984375 2223 -80.0458984375 2248 c 2,12,-1
 -41.0458984375 2379 l 2,0,1
EndSplineSet
Fore
SplineSet
178.07421875 2076.03320312 m 5
 148.815429688 1791.1328125 l 5
 69.9462890625 1734.47460938 l 5
 50 1991.33300781 l 5
 178.07421875 2076.03320312 l 5
EndSplineSet
Colour: ffff00
EndChar
StartChar: uni06DB
Encoding: 1755 1755 1055
Width: 260
GlyphClass: 4
Flags: HW
HStem: 2600 154.268
VStem: 50 160.696
AnchorPoint: "MarkAbove" 133 2600 mark 0
LayerCount: 2
Back
SplineSet
415.538085938 3111 m 2,0,1
 420.538085938 3117 420.538085938 3117 429.538085938 3112 c 0,2,3
 489.538085938 3078 489.538085938 3078 531.538085938 3024 c 0,4,5
 537.538085938 3016 537.538085938 3016 531.538085938 3009 c 2,6,-1
 431.538085938 2901 l 2,7,8
 425.538085938 2895 425.538085938 2895 416.038085938 2906.5 c 128,-1,9
 406.538085938 2918 406.538085938 2918 316.538085938 2999 c 0,10,11
 310.538085938 3004 310.538085938 3004 315.538085938 3009 c 2,12,-1
 415.538085938 3111 l 2,0,1
558.538085938 2911 m 2,13,14
 563.538085938 2916 563.538085938 2916 572.538085938 2912 c 0,15,16
 632.538085938 2878 632.538085938 2878 673.538085938 2824 c 0,17,18
 679.538085938 2816 679.538085938 2816 673.538085938 2809 c 2,19,-1
 573.538085938 2702 l 2,20,21
 568.538085938 2696 568.538085938 2696 558.538085938 2707 c 0,22,23
 557.538085938 2708 557.538085938 2708 458.538085938 2799 c 0,24,25
 453.538085938 2804 453.538085938 2804 457.538085938 2809 c 2,26,-1
 558.538085938 2911 l 2,13,14
271.538085938 2911 m 2,27,28
 277.538085938 2917 277.538085938 2917 284.538085938 2912 c 0,29,30
 344.538085938 2878 344.538085938 2878 386.538085938 2824 c 0,31,32
 392.538085938 2816 392.538085938 2816 386.538085938 2809 c 2,33,-1
 286.538085938 2702 l 2,34,35
 282.538085938 2697 282.538085938 2697 270.538085938 2707 c 0,36,37
 269.538085938 2708 269.538085938 2708 171.538085938 2799 c 0,38,39
 166.538085938 2804 166.538085938 2804 170.538085938 2809 c 2,40,-1
 271.538085938 2911 l 2,27,28
EndSplineSet
Fore
SplineSet
123.696289062 2760.32421875 m 261
 84.3359375 2720.96484375 l 261
 84.3359375 2712.56445312 l 261
 123.696289062 2672.96484375 l 261
 132.81640625 2672.96484375 l 261
 173.856445312 2712.56445312 l 261
 173.856445312 2720.96484375 l 261
 132.81640625 2760.32421875 l 261
 123.696289062 2760.32421875 l 261
83.736328125 2689.22460938 m 1
 44.3759765625 2649.86523438 l 1
 44.3759765625 2641.46484375 l 1
 83.736328125 2601.86523438 l 1
 92.8564453125 2601.86523438 l 1
 128.934570312 2636.67773438 l 1
 163.536132812 2601.86523438 l 1
 172.65625 2601.86523438 l 1
 213.696289062 2641.46484375 l 1
 213.696289062 2649.86523438 l 1
 172.65625 2689.22460938 l 1
 163.536132812 2689.22460938 l 1
 128.934570312 2654.62304688 l 1
 92.8564453125 2689.22460938 l 1
 83.736328125 2689.22460938 l 1
EndSplineSet
Colour: ffff00
EndChar
StartChar: uni06DE
Encoding: 1758 1758 1046
Width: 1222
VWidth: 0
Flags: HW
LayerCount: 2
Back
SplineSet
937 720 m 2,0,1
 1008 807 1008 807 1066 749 c 0,2,3
 1125 690 1125 690 1038 619 c 2,4,-1
 741 374 l 1,5,-1
 1124 411 l 2,6,7
 1236 422 1236 422 1236 340 c 0,8,9
 1236 257 1236 257 1124 268 c 2,10,-1
 742 305 l 1,11,-1
 1038 61 l 2,12,13
 1125 -10 1125 -10 1067 -69 c 0,14,15
 1008 -128 1008 -128 937 -40 c 1,16,-1
 692 257 l 1,17,-1
 729 -126 l 2,18,19
 740 -238 740 -238 658 -238 c 0,20,21
 575 -238 575 -238 586 -126 c 2,22,-1
 623 256 l 1,23,-1
 379 -41 l 2,24,25
 308 -128 308 -128 249 -69 c 0,26,27
 191 -11 191 -11 278 61 c 2,28,-1
 575 305 l 1,29,-1
 192 268 l 2,30,31
 80 257 80 257 80 340 c 0,32,33
 80 422 80 422 192 411 c 2,34,-1
 575 374 l 1,35,-1
 278 619 l 2,36,37
 191 690 191 690 250 749 c 0,38,39
 308 807 308 807 379 720 c 2,40,-1
 623 424 l 1,41,-1
 586 806 l 2,42,43
 575 918 575 918 658 918 c 0,44,45
 740 918 740 918 729 806 c 2,46,-1
 692 422 l 1,47,-1
 937 720 l 2,0,1
EndSplineSet
Fore
SplineSet
918.921875 439.374023438 m 4
 869.391601562 448.834960938 804.278320312 460.799804688 720.243164062 454.678710938 c 5
 780.34765625 400.973632812 836 372.869140625 882.469726562 349.217773438 c 4
 947.3046875 316.3828125 1003.51269531 287.721679688 1003.51269531 208.6953125 c 4
 1003.51269531 136.34765625 931.165039062 65.11328125 857.147460938 65.11328125 c 4
 767.826171875 65.11328125 741.11328125 137.739257812 713.008789062 214.817382812 c 4
 695.200195312 263.512695312 674.052734375 321.669921875 633.982421875 380.3828125 c 5
 622.295898438 326.122070312 621.182617188 283.826171875 621.182617188 247.095703125 c 4
 621.182617188 223.165039062 624.243164062 151.095703125 624.243164062 137.4609375 c 4
 624.243164062 56.4873046875 570.260742188 0 492.625976562 0 c 4
 423.6171875 0 349.043945312 49.251953125 349.043945312 128.834960938 c 4
 349.043945312 183.095703125 380.487304688 218.991210938 416.939453125 260.73046875 c 4
 449.49609375 298.017578125 488.452148438 342.5390625 524.625976562 416.834960938 c 5
 446.15625 390.956054688 393.84375 357.287109375 350.15625 328.904296875 c 4
 306.748046875 300.799804688 272.243164062 278.5390625 231.6171875 278.5390625 c 4
 150.365234375 278.5390625 100 356.173828125 100 427.96484375 c 4
 100 491.409179688 148.139648438 556.799804688 228.834960938 556.799804688 c 4
 250.5390625 556.799804688 274.469726562 552.34765625 302.017578125 547.060546875 c 4
 350.991210938 537.599609375 416.104492188 525.913085938 500.973632812 531.756835938 c 5
 441.42578125 584.069335938 386.608398438 612.73046875 340.416992188 636.661132812 c 4
 275.026367188 670.88671875 218.5390625 700.3828125 218.5390625 778.017578125 c 4
 218.5390625 850.643554688 290.88671875 921.599609375 364.904296875 921.599609375 c 4
 450.88671875 921.599609375 477.043945312 853.147460938 507.374023438 773.565429688 c 4
 525.739257812 725.147460938 547.721679688 667.547851562 587.235351562 606.88671875 c 5
 598.643554688 664.765625 600.591796875 707.338867188 600.591796875 739.6171875 c 4
 600.591796875 763.547851562 597.530273438 835.6171875 597.530273438 849.251953125 c 4
 597.530273438 930.50390625 651.512695312 986.991210938 729.147460938 986.991210938 c 4
 810.95703125 986.991210938 872.73046875 931.6171875 872.73046875 858.15625 c 4
 872.73046875 803.895507812 842.122070312 769.391601562 806.782226562 729.043945312 c 4
 774.2265625 692.03515625 734.991210938 647.512695312 697.704101562 570.712890625 c 5
 777.565429688 597.42578125 831.26953125 631.930664062 872.452148438 658.365234375 c 4
 915.583007812 685.913085938 949.530273438 707.895507812 990.434570312 707.895507812 c 4
 1071.6875 707.895507812 1122.05273438 630.260742188 1122.05273438 558.469726562 c 4
 1122.05273438 495.026367188 1073.91308594 429.634765625 993.217773438 429.634765625 c 4
 971.512695312 429.634765625 947.026367188 434.086914062 918.921875 439.374023438 c 4
EndSplineSet
Colour: ffff00
EndChar
StartChar: uni08F6
Encoding: 2294 2294 1414
Width: 0
Flags: HW
LayerCount: 2
Back
SplineSet
307 -873 m 2,0,1
 310 -870 310 -870 312 -870 c 128,-1,2
 314 -870 314 -870 338 -878 c 128,-1,3
 362 -886 362 -886 376 -902 c 0,4,5
 392 -920 392 -920 390 -923 c 2,6,-1
 341 -1000 l 2,7,8
 340 -1002 340 -1002 338 -1002 c 128,-1,9
 336 -1002 336 -1002 316 -986 c 128,-1,10
 296 -970 296 -970 276 -962 c 128,-1,11
 256 -954 256 -954 256 -951 c 0,12,13
 256 -949 256 -949 257 -948 c 2,14,-1
 307 -873 l 2,0,1
EndSplineSet
Fore
SplineSet
81.9375 -852.419921875 m 261
 -0.3251953125 -934.6796875 l 261
 -0.3251953125 -952.237304688 l 261
 81.9375 -1035 l 261
 101 -1035 l 261
 186.7734375 -952.237304688 l 261
 186.7734375 -934.6796875 l 261
 101 -852.419921875 l 261
 81.9375 -852.419921875 l 261
EndSplineSet
Colour: ffff00
EndChar
StartChar: uni08FC
Encoding: 2300 2300 1420
Width: 0
Flags: HW
LayerCount: 2
Back
SplineSet
-187 2002 m 2,0,1
 -185 2005 -185 2005 -183 2005 c 0,2,3
 -150 2005 -150 2005 -106 1961 c 0,4,5
 -101.27734375 1956.27734375 -101.27734375 1956.27734375 -104 1952 c 2,6,-1
 -153 1875 l 2,7,8
 -156.1171875 1870.10058594 -156.1171875 1870.10058594 -163.05859375 1876.05029297 c 128,-1,9
 -170 1882 -170 1882 -204 1902 c 128,-1,10
 -238 1922 -238 1922 -238 1924 c 0,11,12
 -238 1925.5 -238 1925.5 -237 1927 c 2,13,-1
 -187 2002 l 2,0,1
EndSplineSet
Fore
SplineSet
80.1640625 1912.81738281 m 261
 -2.0986328125 1830.55761719 l 261
 -2.0986328125 1813 l 261
 80.1640625 1730.23730469 l 261
 99.2265625 1730.23730469 l 261
 185 1813 l 261
 185 1830.55761719 l 261
 99.2265625 1912.81738281 l 261
 80.1640625 1912.81738281 l 261
EndSplineSet
Colour: ffff00
EndChar
StartChar: uni200E
Encoding: 8206 8206 1425
Width: 0
Flags: HW
LayerCount: 2
Back
SplineSet
30 970 m 1,0,-1
 30 0 l 1,1,-1
 -30 0 l 1,2,-1
 -30 970 l 1,3,-1
 30 970 l 1,0,-1
-277 1110 m 1,4,-1
 -139 1248 l 1,5,-1
 -96 1206 l 1,6,-1
 -162 1140 l 1,7,-1
 30 1140 l 1,8,-1
 30 1080 l 1,9,-1
 -163 1080 l 1,10,-1
 -96 1013 l 1,11,-1
 -138 971 l 1,12,-1
 -277 1110 l 1,4,-1
EndSplineSet
Fore
SplineSet
77.052734375 0 m 1
 77.052734375 838.916992188 l 5
 -84.060546875 838.916992188 l 5
 -84.060546875 0 l 1
 77.052734375 0 l 1
77.052734375 1196.20410156 m 5
 -191.469726562 1196.20410156 l 5
 -74.599609375 1361.49121094 l 5
 -240.721679688 1361.49121094 l 5
 -406.008789062 1127.75195312 l 5
 -241 894.291015625 l 5
 -74.599609375 894.291015625 l 5
 -191.469726562 1059.85644531 l 5
 77.052734375 1059.85644531 l 5
 77.052734375 1196.20410156 l 5
EndSplineSet
Colour: ffff00
EndChar
StartChar: uni202C
Encoding: 8236 8236 167
Width: 0
Flags: HW
LayerCount: 2
Back
SplineSet
30 970 m 1,0,-1
 30 0 l 1,1,-1
 -30 0 l 1,2,-1
 -30 970 l 1,3,-1
 30 970 l 1,0,-1
139 1055 m 1,4,-1
 97 1013 l 1,5,-1
 0 1110 l 1,6,-1
 -97 1013 l 1,7,-1
 -139 1055 l 1,8,-1
 0 1194 l 1,9,-1
 139 1055 l 1,4,-1
EndSplineSet
Fore
SplineSet
-83.2958984375 0 m 1
 -83.2958984375 1035.48242188 l 5
 77.8173828125 1035.48242188 l 5
 77.8173828125 0 l 1
 -83.2958984375 0 l 1
-60.478515625 1360.49121094 m 5
 55 1360.49121094 l 5
 245.331054688 1090.85644531 l 5
 79.208984375 1090.85644531 l 5
 -2.8779296875 1206.89160156 l 5
 -84.6865234375 1090.85644531 l 5
 -250.80859375 1090.85644531 l 5
 -60.478515625 1360.49121094 l 5
EndSplineSet
Colour: ffff00
EndChar
StartChar: uniFD3F
Encoding: 64831 64831 1115
Width: 846
Flags: HW
LayerCount: 2
Back
SplineSet
817 340 m 0,0,1
 817 408 817 408 761 449 c 1,2,3
 725 474 725 474 683 474 c 0,4,5
 615 474 615 474 573 418 c 1,6,7
 549 382 549 382 549 340 c 0,8,9
 549 272 549 272 605 231 c 1,10,11
 641 206 641 206 683 206 c 0,12,13
 751 206 751 206 791 262 c 0,14,15
 817 297 817 297 817 340 c 0,0,1
523 748 m 1,16,17
 435 1097 435 1097 223 1406 c 1,18,19
 189 1460 189 1460 224.5 1494.5 c 128,-1,20
 260 1529 260 1529 311 1480 c 1,21,22
 621 1159 621 1159 735 764 c 1,23,24
 827 755 827 755 919 719 c 1,25,26
 947 706 947 706 929 681 c 2,27,-1
 787 488 l 1,28,29
 807 467 807 467 827 448 c 1,30,-1
 827 448 l 1,31,-1
 1023 592 l 2,32,33
 1049 611 1049 611 1061 581 c 0,34,35
 1087 515 1087 515 1099 447 c 1,36,37
 1163 417 1163 417 1209 355 c 1,38,39
 1217 341 1217 341 1209 326 c 1,40,41
 1163 264 1163 264 1099 234 c 1,42,43
 1087 167 1087 167 1061 99 c 0,44,45
 1049 70 1049 70 1023 88 c 2,46,-1
 827 232 l 2,47,48
 825 234 825 234 787 192 c 1,49,-1
 929 -1 l 2,50,51
 947 -26 947 -26 919 -39 c 1,52,53
 827 -75 827 -75 737 -84 c 1,54,55
 623 -481 623 -481 311 -803 c 1,56,57
 261 -853 261 -853 224.5 -819 c 128,-1,58
 188 -785 188 -785 223 -730 c 1,59,60
 431 -437 431 -437 523 -68 c 1,61,62
 479 -57 479 -57 442.5 -42 c 128,-1,63
 406 -27 406 -27 425 -1 c 2,64,-1
 569 194 l 1,65,66
 569 196 569 196 571 197 c 1,67,68
 555 215 555 215 537 232 c 1,69,-1
 343 88 l 2,70,71
 325 75 325 75 315 85 c 0,72,73
 285 117 285 117 265 234 c 1,74,75
 201 264 201 264 155 326 c 0,76,77
 145 340 145 340 155 355 c 0,78,79
 201 417 201 417 265 447 c 1,80,81
 277 514 277 514 305 581 c 0,82,83
 317 611 317 611 343 592 c 2,84,-1
 537 448 l 1,85,86
 555 465 555 465 571 483 c 1,87,88
 569 485 569 485 569 486 c 2,89,-1
 425 681 l 2,90,91
 407 707 407 707 443 722 c 128,-1,92
 479 737 479 737 523 748 c 1,16,17
583 709 m 1,93,94
 533 701 533 701 485 684 c 1,95,-1
 601 526 l 1,96,-1
 607 526 l 1,97,98
 631 556 631 556 647 581.5 c 128,-1,99
 663 607 663 607 682 606 c 128,-1,100
 701 605 701 605 715.5 581 c 128,-1,101
 730 557 730 557 753 527 c 1,102,-1
 869 684 l 1,103,104
 781 713 781 713 697 716 c 1,105,-1
 691 739 l 1,106,107
 581 1128 581 1128 275 1444 c 0,108,109
 265 1455 265 1455 257 1458 c 1,110,111
 251 1455 251 1455 265 1434 c 0,112,113
 499 1086 499 1086 583 709 c 1,93,94
1053 269 m 1,94,-1
 1077 279 l 1,115,116
 1123 300 1123 300 1157 340 c 1,117,118
 1123 380 1123 380 1077 402 c 2,119,-1
 1053 413 l 1,120,121
 1045 473 1045 473 1025 532 c 1,122,-1
 867 415 l 1,123,-1
 867 413 l 1,124,125
 897 390 897 390 920 374 c 128,-1,126
 943 358 943 358 944 340 c 128,-1,127
 945 322 945 322 920.5 306 c 128,-1,128
 896 290 896 290 867 267 c 1,129,-1
 867 265 l 1,130,-1
 1025 148 l 1,131,132
 1045 209 1045 209 1053 269 c 1,94,-1
497 414 m 1,133,-1
 497 415 l 1,134,-1
 339 532 l 1,135,136
 319 473 319 473 311 413 c 1,137,-1
 287 402 l 2,138,139
 239 380 239 380 207 340 c 1,140,141
 241 300 241 300 287 279 c 1,142,-1
 311 269 l 1,143,144
 319 209 319 209 339 148 c 1,145,-1
 497 265 l 1,146,-1
 497 266 l 1,147,148
 469 290 469 290 445 305.5 c 128,-1,149
 421 321 421 321 419 339.5 c 128,-1,150
 417 358 417 358 442.5 374 c 128,-1,151
 468 390 468 390 497 414 c 1,133,-1
583 -29 m 1,152,153
 483 -448 483 -448 265 -758 c 1,154,155
 253 -777 253 -777 257 -782 c 1,156,157
 265 -780 265 -780 275 -769 c 0,158,159
 585 -450 585 -450 693 -56 c 1,160,-1
 697 -36 l 1,161,162
 783 -33 783 -33 869 -4 c 1,163,-1
 755 152 l 1,164,165
 731 123 731 123 715 98.5 c 128,-1,166
 699 74 699 74 680 74 c 128,-1,167
 661 74 661 74 646.5 99 c 128,-1,168
 632 124 632 124 609 154 c 1,169,-1
 601 154 l 1,170,-1
 485 -4 l 1,171,172
 533 -21 533 -21 583 -29 c 1,152,153
EndSplineSet
Fore
SplineSet
735.866210938 607.8515625 m 0
 735.866210938 607.573242188 735.866210938 607.573242188 736.143554688 607.017578125 c 0
 736.143554688 606.739257812 736.143554688 606.739257812 736.143554688 606.4609375 c 0
 736.143554688 566.947265625 711.100585938 533.278320312 676.595703125 521.3125 c 0
 676.595703125 521.034179688 676.595703125 520.755859375 676.595703125 520.477539062 c 0
 681.326171875 510.182617188 684.387695312 498.7734375 684.387695312 486.530273438 c 0
 684.387695312 442.008789062 648.4921875 406.112304688 603.969726562 406.112304688 c 0
 594.508789062 406.112304688 585.604492188 408.060546875 577.256835938 411.12109375 c 1
 557.22265625 333.208007812 515.483398438 159.104492188 422.822265625 41.677734375 c 4
 370.787109375 -24.5478515625 313.744140625 -66.287109375 277.013671875 -140.026367188 c 5
 305.118164062 -168.965820312 322.6484375 -208.200195312 322.6484375 -251.887695312 c 4
 322.6484375 -340.930664062 250.579101562 -413 161.53515625 -413 c 4
 74.1611328125 -413 3.76171875 -343.435546875 0.978515625 -256.895507812 c 5
 -7.0908203125 -163.678710938 55.7958984375 -86.322265625 128.700195312 23.869140625 c 4
 201.604492188 134.338867188 317.361328125 352.686523438 285.639648438 465.66015625 c 0
 254.474609375 576.686523438 168.213867188 607.294921875 168.213867188 607.294921875 c 1
 168.213867188 607.294921875 254.474609375 637.904296875 285.361328125 748.65234375 c 0
 317.083007812 861.625976562 201.326171875 1080.25195312 128.421875 1190.44335938 c 0
 55.517578125 1300.63476562 -7.369140625 1377.99121094 0.7001953125 1471.20800781 c 1
 3.4833984375 1557.74707031 74.1611328125 1627.3125 161.256835938 1627.3125 c 0
 250.30078125 1627.3125 322.370117188 1555.24316406 322.370117188 1466.20019531 c 0
 322.370117188 1422.79101562 304.83984375 1383.27832031 276.735351562 1354.33886719 c 1
 313.465820312 1280.59960938 370.508789062 1238.86035156 422.543945312 1172.63476562 c 0
 514.926757812 1055.20800781 556.944335938 881.104492188 576.978515625 803.19140625 c 1
 585.326171875 806.251953125 594.231445312 808.200195312 603.69140625 808.200195312 c 0
 648.213867188 808.200195312 684.109375 772.303710938 684.109375 727.782226562 c 0
 684.109375 715.5390625 681.048828125 704.129882812 676.318359375 693.834960938 c 0
 676.318359375 693.556640625 676.318359375 693.278320312 676.318359375 693 c 0
 710.822265625 681.3125 735.866210938 647.643554688 735.866210938 607.8515625 c 0
612.040039062 541.625976562 m 0
 570.30078125 563.608398438 537.1875 587.5390625 513.256835938 607.017578125 c 1
 537.1875 627.051757812 570.579101562 650.982421875 612.318359375 672.686523438 c 0
 615.37890625 674.356445312 643.76171875 689.938476562 647.657226562 714.982421875 c 0
 649.604492188 728.6171875 644.595703125 741.416992188 632.352539062 753.66015625 c 0
 620.387695312 765.904296875 607.309570312 770.913085938 593.953125 768.96484375 c 0
 569.1875 765.34765625 553.326171875 736.96484375 551.657226562 733.625976562 c 0
 529.674804688 691.88671875 505.744140625 658.495117188 485.987304688 634.564453125 c 1
 465.953125 658.495117188 442.022460938 691.88671875 420.318359375 733.625976562 c 0
 418.6484375 736.686523438 402.787109375 765.069335938 378.022460938 768.96484375 c 0
 364.666015625 770.913085938 351.587890625 765.904296875 339.34375 753.66015625 c 0
 327.100585938 741.6953125 322.091796875 728.6171875 324.040039062 715.260742188 c 0
 327.657226562 690.495117188 356.040039062 674.634765625 359.37890625 672.96484375 c 0
 401.118164062 650.982421875 434.508789062 627.051757812 458.439453125 607.294921875 c 1
 434.508789062 587.260742188 401.118164062 563.330078125 359.37890625 541.625976562 c 0
 356.318359375 539.956054688 327.935546875 524.374023438 324.040039062 499.330078125 c 0
 322.091796875 485.973632812 327.100585938 473.173828125 339.34375 460.9296875 c 0
 351.309570312 448.686523438 364.387695312 443.677734375 377.744140625 445.625976562 c 0
 402.508789062 449.243164062 418.370117188 477.625976562 420.040039062 480.96484375 c 0
 442.022460938 522.704101562 465.953125 556.095703125 485.708984375 580.025390625 c 1
 505.744140625 556.095703125 529.674804688 522.704101562 551.37890625 480.96484375 c 0
 553.048828125 477.904296875 568.630859375 449.521484375 593.674804688 445.625976562 c 0
 606.752929688 443.677734375 619.831054688 448.686523438 632.07421875 460.9296875 c 0
 644.318359375 472.895507812 649.326171875 485.973632812 647.37890625 499.330078125 c 0
 643.76171875 524.095703125 615.37890625 539.956054688 612.040039062 541.625976562 c 0
EndSplineSet
Colour: ffff00
EndChar
StartChar: u1EE8B
Encoding: 126603 126603 1351
Width: 1329
VWidth: 0
Flags: HW
LayerCount: 2
Back
SplineSet
386.860351562 527 m 0,0,1
 322.860351562 404 322.860351562 404 331.860351562 325 c 0,2,3
 358.860351562 73 358.860351562 73 704.860351562 85 c 0,4,5
 786.860351562 88 786.860351562 88 855.860351562 103 c 1,6,7
 860.860351562 200 860.860351562 200 843.860351562 278 c 0,8,9
 783.860351562 538 783.860351562 538 603.860351562 586 c 0,10,11
 439.860351562 630 439.860351562 630 386.860351562 527 c 0,0,1
891.860351562 -81 m 1,12,13
 853.860351562 -217 853.860351562 -217 787.860351562 -378 c 0,14,15
 781.860351562 -394 781.860351562 -394 758.360351562 -432 c 128,-1,16
 734.860351562 -470 734.860351562 -470 712.860351562 -468 c 1,17,18
 701.860351562 -464 701.860351562 -464 714.860351562 -432 c 0,19,20
 788.860351562 -252 788.860351562 -252 823.860351562 -104 c 1,21,22
 723.860351562 -133 723.860351562 -133 637.860351562 -132 c 0,23,24
 245.860351562 -126 245.860351562 -126 241.860351562 213 c 0,25,26
 238.860351562 411 238.860351562 411 361.860351562 593 c 0,27,28
 469.860351562 754 469.860351562 754 602.860351562 737 c 0,29,30
 855.860351562 704 855.860351562 704 931.860351562 389 c 0,31,32
 957.860351562 278 957.860351562 278 936.860351562 126 c 1,33,34
 1059.86035156 171 1059.86035156 171 1132.86035156 264 c 1,35,36
 1127.86035156 392 1127.86035156 392 1085.86035156 720 c 128,-1,37
 1043.86035156 1048 1043.86035156 1048 1023.86035156 1336 c 1,38,-1
 1015.86035156 1404 l 1,39,40
 1015.86035156 1422 1015.86035156 1422 1020.86035156 1434 c 2,41,-1
 1059.86035156 1524 l 2,42,43
 1065.86035156 1538 1065.86035156 1538 1080.86035156 1538 c 128,-1,44
 1095.86035156 1538 1095.86035156 1538 1101.86035156 1519 c 0,45,46
 1129.86035156 1431 1129.86035156 1431 1185.86035156 1370 c 0,47,48
 1203.86035156 1351 1203.86035156 1351 1183.36035156 1320 c 128,-1,49
 1162.86035156 1289 1162.86035156 1289 1149.86035156 1274 c 128,-1,50
 1136.86035156 1259 1136.86035156 1259 1137.86035156 1232 c 0,51,52
 1141.86035156 1131 1141.86035156 1131 1175.86035156 860 c 0,53,54
 1205.86035156 623 1205.86035156 623 1214.86035156 493 c 0,55,56
 1229.86035156 287 1229.86035156 287 1159.86035156 118 c 0,57,58
 1117.86035156 14 1117.86035156 14 945.860351562 -60 c 0,59,60
 917.860351562 -71 917.860351562 -71 891.860351562 -81 c 1,12,13
EndSplineSet
Fore
SplineSet
1279.86035156 1066 m 5
 1178.72949219 993.374023438 l 5
 1178.72949219 993.374023438 1193.86425781 311.842773438 1194.10351562 193.860351562 c 4
 1194.38183594 56.3994140625 1159.32128906 -261.008789062 805.9296875 -284.3828125 c 5
 790.069335938 -339.756835938 770.034179688 -399.861328125 746.66015625 -461.078125 c 5
 746.66015625 -461.078125 l 5
 586.103515625 -461.078125 l 5
 605.303710938 -399.861328125 622.555664062 -343.374023438 636.747070312 -290.504882812 c 5
 259.147460938 -287.721679688 110 -50.921875 110 221.495117188 c 4
 110 446.608398438 239.390625 616.34765625 424.434570312 616.34765625 c 4
 613.095703125 616.34765625 821.512695312 480.556640625 856.8515625 169.4609375 c 5
 954.243164062 192.834960938 1000.15625 250.712890625 978.173828125 352.556640625 c 5
 856.573242188 1079.84277344 l 6
 848.782226562 1126.3125 866.90625 1173.5703125 903.877929688 1202.83496094 c 6
 1177.40820312 1433.3515625 l 5
 1279.86035156 1066 l 5
623.112304688 152.486328125 m 4
 624.782226562 152.486328125 638.6953125 152.486328125 654.833984375 152.486328125 c 5
 641.477539062 371.755859375 496.50390625 430.469726562 428.88671875 430.469726562 c 4
 372.12109375 430.469726562 317.58203125 402.643554688 317.58203125 330.573242188 c 4
 317.58203125 201.182617188 477.58203125 152.486328125 623.112304688 152.486328125 c 4
EndSplineSet
Colour: ffff00
EndChar
StartChar: ThreeDots.a
Encoding: 1114185 -1 77
Width: 0
GlyphClass: 4
Flags: HW
HStem: 0 540.642
VStem: -280.122 563.806
AnchorPoint: "TashkilAboveDot" -41 601 basemark 0
AnchorPoint: "TwoDotsAbove" -111 140 mark 0
AnchorPoint: "DotHmaza" 0 0 mark 0
LayerCount: 2
Back
SplineSet
-80 519 m 2,0,1
 -75 527 -75 527 -63 523 c 0,2,3
 18 495 18 495 82 438 c 0,4,5
 91 430 91 430 85 420 c 2,6,-1
 -13 265 l 2,7,8
 -19 256 -19 256 -33.5 268 c 128,-1,9
 -48 280 -48 280 -177 358 c 0,10,11
 -185 363 -185 363 -180 370 c 2,12,-1
 -80 519 l 2,0,1
61 306 m 2,13,14
 66 314 66 314 78 310 c 0,15,16
 159 282 159 282 223 225 c 0,17,18
 232 217 232 217 226 207 c 2,19,-1
 128 52 l 2,20,21
 122 43 122 43 108 55 c 0,22,23
 96 65 96 65 7 119 c 1,24,-1
 -65 5 l 2,25,26
 -71 -4 -71 -4 -85.5 8 c 128,-1,27
 -100 20 -100 20 -229 98 c 0,28,29
 -237 103 -237 103 -232 110 c 2,30,-1
 -132 259 l 2,31,32
 -127 267 -127 267 -115 263 c 0,33,34
 -56 243 -56 243 -6 207 c 1,35,-1
 61 306 l 2,13,14
EndSplineSet
Fore
SplineSet
-16.2001953125 540.19921875 m 261
 -147.400390625 409 l 261
 -147.400390625 381 l 261
 -16.2001953125 249 l 261
 14.2001953125 249 l 261
 151 381 l 261
 151 409 l 261
 14.2001953125 540.19921875 l 261
 -16.2001953125 540.19921875 l 261
-149.400390625 303.19921875 m 5
 -280.600585938 172 l 5
 -280.600585938 144 l 5
 -149.400390625 12 l 5
 -119 12 l 5
 1.26112144385 128.041598647 l 5
 116.599609375 12 l 5
 147 12 l 5
 283.799804688 144 l 5
 283.799804688 172 l 5
 147 303.19921875 l 5
 116.599609375 303.19921875 l 5
 1.26112144385 187.861589318 l 5
 -119 303.19921875 l 5
 -149.400390625 303.19921875 l 5
EndSplineSet
Colour: ffff00
EndChar
StartChar: aAlf.isol
Encoding: 1114114 -1 2
Width: 576
Flags: W
HStem: 0 21G<179.531 207.263>
VStem: 180.932 233.143<177.084 299.826>
AnchorPoint: "DigitAbove" 250 1420 basechar 0
AnchorPoint: "HamzaAbove" 273 1340 basechar 0
AnchorPoint: "TashkilAbove" 300 1400 basechar 0
AnchorPoint: "TashkilBelow" 341 -150 basechar 0
AnchorPoint: "HamzaBelow" 330 -80 basechar 0
AnchorPoint: "HighHamza" 566 1630 basechar 0
LayerCount: 2
Back
SplineSet
190 1388 m 2,0,1
 220 1460 220 1460 228 1392 c 1,2,-1
 275 874 l 1,3,4
 354 184 354 184 266 14 c 0,5,6
 254 -9 254 -9 244.5 2.5 c 128,-1,7
 235 14 235 14 236 36 c 0,8,9
 241 278 241 278 222.5 423 c 128,-1,10
 204 568 204 568 178 813 c 2,11,-1
 134 1214 l 2,12,13
 130 1248 130 1248 145 1283 c 2,14,-1
 190 1388 l 2,0,1
EndSplineSet
Fore
SplineSet
518.081054688 995.994140625 m 5
 433.571289062 933.568359375 l 5
 414.07421875 177.083984375 l 5
 180.931640625 0 l 5
 110.768554688 1001.74707031 l 6
 104.955078125 1067.66113281 132.688494357 1131.80532089 183.926757812 1173.55371094 c 6
 412.643554688 1362 l 5
 518.081054688 995.994140625 l 5
EndSplineSet
Colour: ffff00
EndChar
StartChar: aAyn.init
Encoding: 1114116 -1 4
Width: 1121
Flags: HW
HStem: 0 436.188<-50 202.382 486.177 794.202>
AnchorPoint: "TwoDotsAbove" 190 1100 basechar 0
AnchorPoint: "DotAbove" 300 1100 basechar 0
AnchorPoint: "HamzaAbove" 550 1100 basechar 0
AnchorPoint: "TashkilAbove" 650 1100 basechar 0
AnchorPoint: "TashkilBelow" 459 -210 basechar 0
AnchorPoint: "DotBelow" 490 -200 basechar 0
LayerCount: 2
Back
SplineSet
854 515 m 2,0,-1
 812 351 l 2,1,2
 807 333 807 333 777 322 c 0,3,4
 656 278 656 278 477 204 c 1,5,-1
 6 0 l 1,6,7
 -39 0 -39 0 -55.5 75.5 c 128,-1,8
 -72 151 -72 151 6 185 c 0,9,10
 16 189 16 189 148 244 c 1,11,12
 54 325 54 325 75 431 c 0,13,14
 128 700 128 700 399 813 c 0,15,16
 449 834 449 834 532.5 791 c 128,-1,17
 616 748 616 748 677 678 c 0,18,19
 698 654 698 654 683.5 635 c 128,-1,20
 669 616 669 616 642 627 c 0,21,22
 522 676 522 676 375 642 c 128,-1,23
 228 608 228 608 192 522 c 0,24,25
 178 489 178 489 237 436.5 c 128,-1,26
 296 384 296 384 352 375 c 0,27,28
 516 350 516 350 732 488 c 0,29,30
 776 516 776 516 810 534 c 1,31,32
 867 567 867 567 854 515 c 2,0,-1
EndSplineSet
Fore
SplineSet
403.008789062 658.365234375 m 1
 403.008789062 658.365234375 401.338867188 436.03515625 628.956054688 436.03515625 c 0
 801.755859375 436.03515625 1011.28710938 467.200195312 1011.28710938 467.200195312 c 1
 851.842773438 116.591796875 l 2
 819.564453125 45.634765625 748.608398438 0 670.6953125 0 c 2
 -70 0 l 5
 -70 436.1875 l 5
 202.381835938 436.1875 l 1
 142.278320312 513.543945312 210.08203125 616.50390625 238.834960938 656.41796875 c 2
 328.434570312 780.80078125 l 2
 360.712890625 822.817382812 425.826171875 934.400390625 623.390625 934.400390625 c 0
 852.956054688 934.400390625 995.982421875 660.870117188 995.982421875 660.870117188 c 1
 764.747070312 559.026367188 l 1
 764.747070312 559.026367188 689.060546875 665.043945312 634.521484375 697.043945312 c 0
 560.50390625 740.173828125 464.225585938 720.139648438 403.008789062 658.365234375 c 1
EndSplineSet
Colour: ffff00
EndChar
StartChar: aKaf.fina
Encoding: 1114137 -1 25
Width: 1803
Flags: HW
HStem: -0.438477 436.626<322.223 425.554 1230.19 1296.95 1572.27 1745.62>
AnchorPoint: "TwoDotsBelow" 620 -250 basechar 0
AnchorPoint: "DotBelow" 730 -250 basechar 0
AnchorPoint: "HamzaAbove" 800 700 basechar 0
AnchorPoint: "TashkilAbove" 800 700 basechar 0
AnchorPoint: "RingBelow" 750 40 basechar 0
AnchorPoint: "TashkilBelow" 850 -210 basechar 0
AnchorPoint: "TwoDotsAbove" 1220 1650 basechar 0
AnchorPoint: "DotAbove" 1400 1650 basechar 0
AnchorPoint: "Dash" 1452 1451 basechar 0
LayerCount: 2
Back
SplineSet
1413 1453 m 2,0,1
 1435 1486 1435 1486 1439.5 1445 c 128,-1,2
 1444 1404 1444 1404 1471 1048 c 0,3,4
 1516 461 1516 461 1551 362 c 0,5,6
 1603 214 1603 214 1685 185 c 1,7,8
 1726 172 1726 172 1734.5 126.5 c 128,-1,9
 1743 81 1743 81 1724 40.5 c 128,-1,10
 1705 0 1705 0 1685 0 c 0,11,12
 1486 0 1486 0 1448 358 c 1,13,14
 1413 276 1413 276 1345 192.5 c 128,-1,15
 1277 109 1277 109 1206 73 c 0,16,17
 971 -47 971 -47 685 -57 c 0,18,19
 264 -71 264 -71 158 128 c 0,20,21
 129 182 129 182 130 238 c 0,22,23
 136 439 136 439 258 586 c 0,24,25
 268 598 268 598 282 597 c 128,-1,26
 296 596 296 596 299.5 584.5 c 128,-1,27
 303 573 303 573 289 552 c 0,28,29
 200 415 200 415 213 353 c 0,30,31
 257 142 257 142 652 136 c 0,32,33
 924 132 924 132 1209 244 c 0,34,35
 1308 283 1308 283 1363 364 c 0,36,37
 1378 386 1378 386 1382.5 453.5 c 128,-1,38
 1387 521 1387 521 1358 857.5 c 128,-1,39
 1329 1194 1329 1194 1329 1195 c 0,40,41
 1316 1309 1316 1309 1344 1350 c 2,42,-1
 1413 1453 l 2,0,1
EndSplineSet
Fore
SplineSet
807 436.1875 m 0
 425.553710938 436.1875 l 2
 344 436.1875 319.536132812 471.374023438 319.536132812 524.522460938 c 0
 319.536132812 614.95703125 408.858398438 672.834960938 408.858398438 672.834960938 c 1
 302.284179688 754.365234375 l 1
 106.110351562 648.348632812 110.005859375 390.122070312 110.005859375 390.122070312 c 1
 110.005859375 301.913085938 l 2
 110.005859375 134.95703125 244.999926983 -0.223761328021 412.197265625 -0.2783203125 c 2
 903 -0.4384765625 l 0
 1245.90136719 0 l 6
 1384 0.1669921875 1449.31054688 98.7822265625 1470.45800781 193.948242188 c 5
 1502.45800781 82.365234375 1604.24609375 0 1725.62304688 0 c 6
 1873.03222656 0 l 1
 1873.03222656 436.1875 l 1
 1532.75390625 436.1875 l 2
 1515.8203125 436.1875 1501.63769531 452.173828125 1501.58886719 471.65234375 c 2
 1500.47558594 923.712890625 l 1
 1601.92773438 997 l 1
 1496.34472656 1362 l 1
 1184.35351562 1099.52148438 l 2
 1143.734375 1066.96386719 1131.66992188 1021.63867188 1150.68457031 963.73046875 c 2
 1293.35351562 529.251953125 l 2
 1312.21777344 471.803710938 1301.42285156 441.04296875 1230.18847656 436.313476562 c 1
 807 436.1875 l 0
EndSplineSet
Colour: ffff00
EndChar
StartChar: aLam.init
Encoding: 1114143 -1 31
Width: 575
Flags: W
HStem: 0 436.188<-70 224.439>
VStem: -70 494.436<92.1313 436.188>
AnchorPoint: "TwoDotsAbove" -35 1667 basechar 0
AnchorPoint: "TwoDotsBelow" 85 -100 basechar 0
AnchorPoint: "VAbove" 85 1567 basechar 0
AnchorPoint: "TashkilAbove" 255 1350 basechar 0
AnchorPoint: "DotAbove" 85 1667 basechar 0
AnchorPoint: "Stroke" 125 1072 basechar 0
AnchorPoint: "TashkilBelow" 205 -210 basechar 0
LayerCount: 2
Back
SplineSet
513 1352 m 0,0,1
 544 1427 544 1427 550 1444.5 c 128,-1,2
 556 1462 556 1462 571 1462 c 128,-1,3
 586 1462 586 1462 593 1441 c 0,4,5
 624 1350 624 1350 682 1292 c 0,6,7
 702 1272 702 1272 679 1245 c 1,8,-1
 634 1182 l 1,9,10
 647 1067 647 1067 660 968 c 0,11,12
 729 462 729 462 707 350 c 0,13,14
 643 26 643 26 481 0 c 0,15,16
 445 -5 445 -5 450 135 c 0,17,18
 451 182 451 182 481 185 c 0,19,20
 592 198 592 198 636 277 c 1,21,22
 630 438 630 438 585.5 780 c 128,-1,23
 541 1122 541 1122 532 1199 c 1,24,-1
 512 1314 l 2,25,26
 508 1338 508 1338 513 1352 c 0,0,1
EndSplineSet
Fore
SplineSet
525.887695312 996.208984375 m 1
 424.435546875 923.921875 l 1
 424.435546875 266.57421875 l 2
 424.435546875 119.374023438 305.061523438 0 157.861328125 0 c 2
 -70 0 l 5
 -70 436.1875 l 5
 137.565429688 436.1875 l 2
 224.059570312 436.1875 236.580078125 471.861328125 217.705078125 528.974609375 c 2
 72.974609375 966.904296875 l 2
 54.4912109375 1022.83203125 71.826171875 1069.93847656 109.696289062 1101.4609375 c 2
 420.3046875 1362 l 1
 525.887695312 996.208984375 l 1
EndSplineSet
Colour: ffff00
EndChar
StartChar: aSad.init
Encoding: 1114157 -1 45
Width: 1421
Flags: HW
HStem: 0 436.591<-50 200.841 423.087 513.689 643.426 1089.12> 629.021 193.796<909.557 1208.43>
VStem: 238 146.922<437.313 594.922>
AnchorPoint: "TwoDotsAbove" 523 894 basechar 0
AnchorPoint: "TashkilAbove" 850 950 basechar 0
AnchorPoint: "HamzaAbove" 800 900 basechar 0
AnchorPoint: "DotAbove" 634 894 basechar 0
AnchorPoint: "TashkilBelow" 700 -210 basechar 0
AnchorPoint: "TwoDotsBelow" 700 -400 basechar 0
AnchorPoint: "DotBelow" 800 -400 basechar 0
LayerCount: 2
Back
SplineSet
1072 584 m 0,0,1
 1130 584 1130 584 1222 517 c 128,-1,2
 1314 450 1314 450 1301 381 c 128,-1,3
 1288 312 1288 312 1235 216.5 c 128,-1,4
 1182 121 1182 121 1160 105 c 0,5,6
 972 -32 972 -32 667 -32 c 1,7,8
 546 -31 546 -31 441 -2 c 1,9,10
 425 -22 425 -22 385 -169 c 1,11,12
 378 -199 378 -199 345 -187.5 c 128,-1,13
 312 -176 312 -176 316 -143 c 0,14,15
 327 -70 327 -70 367 26 c 1,16,17
 260 72 260 72 199 145 c 0,18,19
 177 172 177 172 164.5 172 c 128,-1,20
 152 172 152 172 140 143 c 0,21,22
 81 0 81 0 0 0 c 0,23,24
 -12 0 -12 0 -23 23 c 0,25,26
 -55 97 -55 97 -40 138 c 128,-1,27
 -25 179 -25 179 0 185 c 0,28,29
 106 211 106 211 178 342 c 0,30,31
 193 370 193 370 222 369.5 c 128,-1,32
 251 369 251 369 270 337 c 0,33,34
 333 236 333 236 487 191 c 1,35,36
 575 289 575 289 659 363 c 0,37,38
 912 582 912 582 1072 584 c 0,0,1
1161 272 m 0,39,40
 1044 378 1044 378 899 367 c 0,41,42
 842 362 842 362 727.5 287 c 128,-1,43
 613 212 613 212 572 170 c 1,44,45
 690 152 690 152 903.5 176 c 128,-1,46
 1117 200 1117 200 1160 252 c 1,47,48
 1173 261 1173 261 1161 272 c 0,39,40
EndSplineSet
Fore
SplineSet
1077.79101562 822.817382812 m 0
 1339.078125 822.817382812 1333.39453125 580.412109375 1286.48730469 391.512695312 c 0
 1224.99121094 143.860351562 1180.98535156 -0 885.234375 0 c 2
 567.4609375 0 l 2
 445.323242188 -0.2138671875 343.739257812 82.365234375 312.017578125 194.225585938 c 1
 280.295898438 82.365234375 178.452148438 0 56.57421875 0 c 2
 -70 0 l 5
 -70 436.1875 l 5
 175.391601562 436.1875 l 2
 222.086914062 436.098632812 238 455.791015625 238 478.608398438 c 2
 238 594.921875 l 1
 384.921875 594.921875 l 1
 384.921875 478.608398438 l 2
 384.921875 457.4609375 402.73046875 436.590820312 431.391601562 436.590820312 c 0
 536.017578125 436.590820312 800.365234375 822.817382812 1077.79101562 822.817382812 c 0
1096.43457031 436.1875 m 1
 1096.43457031 436.1875 1061.09570312 629.021484375 935.321289062 629.021484375 c 0
 821.234375 629.021484375 643.42578125 436.1875 643.42578125 436.1875 c 1
 1096.43457031 436.1875 l 1
EndSplineSet
Colour: ffff00
EndChar
StartChar: dot.1
Encoding: 1114223 -1 162
Width: 0
Flags: HW
LayerCount: 2
Back
SplineSet
97 97 m 128,-1,1
 97 57 97 57 68.5 28.5 c 128,-1,2
 40 0 40 0 0 0 c 128,-1,3
 -40 0 -40 0 -68.5 28.5 c 128,-1,4
 -97 57 -97 57 -97 97 c 128,-1,5
 -97 137 -97 137 -68.5 165.5 c 128,-1,6
 -40 194 -40 194 0 194 c 128,-1,7
 40 194 40 194 68.5 165.5 c 128,-1,0
 97 137 97 137 97 97 c 128,-1,1
EndSplineSet
Fore
SplineSet
-21 364 m 261
 -185 200 l 261
 -185 165 l 261
 -21 0 l 261
 17 0 l 261
 188 165 l 261
 188 200 l 261
 17 364 l 261
 -21 364 l 261
EndSplineSet
Colour: ffff00
EndChar
StartChar: hThreeDots.b
Encoding: 1114205 -1 110
Width: 0
GlyphClass: 4
Flags: HW
HStem: 0 303.367
AnchorPoint: "TashkilBelowDot" 40 -190 basemark 0
AnchorPoint: "TwoDotsBelow" 0 190 mark 0
LayerCount: 2
Fore
SplineSet
-280 291.19921875 m 1
 -411.200195312 160 l 1
 -411.200195312 132 l 1
 -280 0 l 1
 -249.599609375 0 l 1
 -129.338867188 116.041992188 l 1
 -14 0 l 1
 16.400390625 0 l 1
 136.457139926 115.844397175 l 1
 251.599609375 0 l 1
 282 0 l 1
 418.799804688 132 l 1
 418.799804688 160 l 1
 282 291.19921875 l 1
 251.599609375 291.19921875 l 1
 136.457073701 176.057657976 l 1
 16.400390625 291.19921875 l 1
 -14 291.19921875 l 1
 -129.338867188 175.861328125 l 1
 -249.599609375 291.19921875 l 1
 -280 291.19921875 l 1
EndSplineSet
Colour: 100feff
EndChar
StartChar: uni0600.4
Encoding: 1114941 -1 1163
Width: 4676
Flags: HW
LayerCount: 2
Fore
SplineSet
4585.73242188 437.174804688 m 2
 4586 100.8046875 l 2
 4586.1796875 -116.166992188 4410.34765625 -292.088867188 4193.375 -292.088867188 c 2
 298 -292.088867188 l 5
 60 144.098632812 l 5
 60 144.098632812 4224.49902344 144 4225.30371094 144 c 0
 4365.62988281 144 4409.09570312 201.868164062 4410.4375 258.5703125 c 1
 4068.16503906 258.5703125 l 2
 3974.34570312 258.5703125 3898.32519531 334.590820312 3898.32519531 428.41015625 c 2
 3897.87792969 797.245117188 l 2
 3897.7890625 930.326171875 4005.55957031 1038.36523438 4138.640625 1038.36523438 c 2
 4434.94238281 1038.45410156 l 1
 4434.94238281 945.440429688 l 1
 4434.94238281 945.440429688 4246.14257812 863.069335938 4143.73828125 695.913085938 c 1
 4326.81445312 695.913085938 l 2
 4469.73339844 695.913085938 4585.64257812 580.09375 4585.73242188 437.174804688 c 2
4416.60644531 42.0693359375 m 1024
EndSplineSet
Colour: ffff00
EndChar
StartChar: uni0603.3
Encoding: 1114969 -1 1196
Width: 4334
Flags: HW
LayerCount: 2
Back
SplineSet
3204 -418 m 0,0,1
 3180 -418 3180 -418 3180 -386.5 c 128,-1,2
 3180 -355 3180 -355 3208 -287 c 1,3,4
 3142 -276 3142 -276 3086 -230 c 1,5,6
 2868.51855469 -344 2868.51855469 -344 1943 -344 c 0,7,8
 1032.62011719 -344 1032.62011719 -344 736 -263 c 0,9,10
 674.341796875 -246.09375 674.341796875 -246.09375 648 -217 c 2,11,-1
 581 -143 l 2,12,13
 570 -130.850585938 570 -130.850585938 570 -121.92578125 c 128,-1,14
 570 -113 570 -113 604 -120 c 0,15,16
 1158.32128906 -220 1158.32128906 -220 1998 -220 c 0,17,18
 2901.8984375 -220 2901.8984375 -220 3121 -111 c 0,19,20
 3129 -107 3129 -107 3150 -131 c 0,21,22
 3193 -180 3193 -180 3280 -188 c 1,23,24
 3466 86 3466 86 3631 87 c 0,25,26
 3661 87 3661 87 3716.5 51 c 128,-1,27
 3772 15 3772 15 3772 -41 c 128,-1,28
 3772 -97 3772 -97 3734.5 -163.5 c 128,-1,29
 3697 -230 3697 -230 3684 -240 c 0,30,31
 3576 -322 3576 -322 3388 -322 c 0,32,33
 3315 -322 3315 -322 3252 -304 c 1,34,35
 3237 -324 3237 -324 3219 -404 c 0,36,37
 3216 -418 3216 -418 3204 -418 c 0,0,1
3684 -140 m 0,38,39
 3627 -43 3627 -43 3536.5 -43 c 128,-1,40
 3446 -43 3446 -43 3331 -201 c 1,41,42
 3362 -206 3362 -206 3409.5 -206 c 128,-1,43
 3457 -206 3457 -206 3557.5 -194.5 c 0,44,45
 3652.35351562 -183.646484375 3652.35351562 -183.646484375 3684 -152 c 0,46,47
 3686 -150 3686 -150 3686 -147 c 128,-1,48
 3686 -144 3686 -144 3684 -140 c 0,38,39
EndSplineSet
Fore
SplineSet
4016 512.728515625 m 0
 4277.28710938 512.728515625 4271.60351562 270.323242188 4224.69628906 81.423828125 c 0
 4163.20019531 -166.228515625 4119.19433594 -310.088867188 3823.44335938 -310.088867188 c 2
 3505.66992188 -310.088867188 l 2
 3383.53222656 -310.302734375 3281.94824219 -227.723632812 3250.2265625 -115.86328125 c 1
 3218.50488281 -227.723632812 3116.66113281 -310.088867188 2994.78320312 -310.088867188 c 2
 298.498046875 -310.088867188 l 1
 60.498046875 126.098632812 l 1
 3113.60058594 126.098632812 l 2
 3160.29589844 126.098632812 3176.20898438 145.702148438 3176.20898438 168.51953125 c 2
 3176.20898438 284.833007812 l 1
 3323.13085938 284.833007812 l 1
 3323.13085938 168.51953125 l 2
 3323.13085938 147.372070312 3340.93945312 126.501953125 3369.60058594 126.501953125 c 0
 3474.2265625 126.501953125 3738.57421875 512.728515625 4016 512.728515625 c 0
4034.64355469 126.098632812 m 1
 4034.64355469 126.098632812 3999.3046875 318.932617188 3873.53027344 318.932617188 c 0
 3759.44335938 318.932617188 3581.63476562 126.098632812 3581.63476562 126.098632812 c 1
 4034.64355469 126.098632812 l 1
EndSplineSet
Colour: ffffff
EndChar
StartChar: uni064F.small
Encoding: 1114217 -1 139
Width: 406
GlyphClass: 4
Flags: W
HStem: 1729 100.397<45 160.528>
VStem: 45 311.087
AnchorPoint: "TashkilTashkilAbove2" 236 2376 basemark 0
AnchorPoint: "TashkilTashkilAbove" 165 1800 mark 0
AnchorPoint: "TashkilAbove" 220 1750 mark 0
LayerCount: 2
Back
SplineSet
22 2441 m 0,0,1
 54 2450 54 2450 75 2422 c 1,2,3
 93 2396 93 2396 95 2349.5 c 128,-1,4
 97 2303 97 2303 55 2205 c 1,5,6
 91 2183 91 2183 107 2174 c 128,-1,7
 123 2165 123 2165 111 2141 c 2,8,-1
 86 2090 l 2,9,10
 75 2067 75 2067 3 2110 c 1,11,12
 -112 1961 -112 1961 -205 1910 c 0,13,14
 -247 1887 -247 1887 -260 1905 c 0,15,16
 -272 1923 -272 1923 -220 1960 c 0,17,18
 -120 2031 -120 2031 -40 2138 c 1,19,20
 -166 2199 -166 2199 -120 2297 c 0,21,22
 -64 2417 -64 2417 22 2441 c 0,0,1
8 2303.5 m 128,-1,24
 -7 2331 -7 2331 -44 2314 c 128,-1,25
 -81 2297 -81 2297 -71 2285 c 0,26,27
 -51 2261 -51 2261 9 2229 c 1,28,23
 23 2276 23 2276 8 2303.5 c 128,-1,24
EndSplineSet
Fore
SplineSet
277.729492188 1885.1875 m 1
 234.875976562 1814.48144531 168.659179688 1749.81445312 45 1729 c 5
 45 1829.39746094 l 5
 108.971679688 1840.11035156 164.782226562 1864.37304688 197.534179688 1909.98046875 c 1
 102.341796875 1947.01660156 96.2197265625 1999.35742188 97.443359375 2022.92578125 c 0
 101.1171875 2095.77539062 189.26953125 2211.78222656 269.463867188 2194.33496094 c 0
 329.762695312 2181.17285156 371.697265625 2114.75195312 324.866210938 2005.17285156 c 1
 356.086914062 1997.82714844 l 1
 355.780273438 1875.08691406 l 2
 355.16796875 1875.08691406 310.173828125 1877.22851562 277.729492188 1885.1875 c 1
184.984375 2077.10253906 m 0
 181.6171875 2035.78222656 260.587890625 2023.23242188 260.587890625 2023.23242188 c 1
 281.708007812 2083.53125 254.465820312 2115.36425781 226.918945312 2112.609375 c 0
 203.9609375 2110.16113281 186.514648438 2094.24414062 184.984375 2077.10253906 c 0
EndSplineSet
Colour: ffff00
EndChar
